<?xml version="1.0" standalone="no"?>
<!DOCTYPE svg PUBLIC "-//W3C//DTD SVG 20010904//EN"
 "http://www.w3.org/TR/2001/REC-SVG-20010904/DTD/svg10.dtd">
<svg version="1.0" xmlns="http://www.w3.org/2000/svg"
 width="700.000000pt" height="700.000000pt" viewBox="0 0 700.000000 700.000000"
 preserveAspectRatio="xMidYMid meet">
<metadata>
Created by potrace 1.14, written by Peter Selinger 2001-2017
</metadata>
<g transform="translate(0.000000,700.000000) scale(0.100000,-0.100000)"
fill="#000000" stroke="none">
<path d="M4005 6112 c-84 -24 -141 -71 -179 -149 -13 -26 -56 -178 -95 -338
-39 -159 -77 -312 -85 -340 -8 -27 -26 -102 -41 -165 -15 -63 -31 -126 -35
-140 -8 -22 -173 -684 -220 -880 -30 -125 -169 -681 -185 -740 -8 -30 -45
-174 -80 -320 -36 -146 -72 -290 -80 -320 -9 -30 -81 -318 -160 -640 -80 -322
-151 -607 -159 -635 -39 -135 -59 -235 -58 -287 2 -183 180 -318 360 -272 29
8 73 27 96 44 94 64 65 -38 526 1810 231 927 424 1699 430 1715 8 26 48 187
70 285 20 86 161 648 169 675 31 96 93 378 94 425 3 182 -189 325 -368 272z"/>
<path d="M1660 4943 c-25 -9 -58 -24 -73 -35 -15 -11 -303 -295 -639 -631
-472 -473 -615 -622 -631 -657 -31 -70 -29 -181 5 -246 20 -38 178 -202 643
-667 339 -339 630 -623 648 -631 109 -49 218 -41 309 23 42 30 91 99 108 155
16 50 8 150 -15 202 -12 26 -182 204 -519 541 l-501 503 501 502 c329 331 507
517 520 543 29 60 27 185 -4 247 -64 129 -219 196 -352 151z"/>
<path d="M5161 4943 c-61 -21 -101 -49 -138 -98 -63 -81 -78 -174 -46 -276 15
-51 43 -81 522 -562 l506 -507 -501 -503 c-329 -330 -507 -516 -520 -542 -28
-59 -26 -185 3 -245 30 -59 83 -113 141 -142 65 -31 177 -31 245 2 70 33 1274
1238 1307 1307 40 85 34 193 -16 274 -13 20 -297 311 -633 646 -468 468 -620
615 -657 632 -59 28 -154 35 -213 14z"/>
</g>
</svg>
